<?xml version="1.0" encoding="UTF-8"?>
<svg id="Layer_1" xmlns="http://www.w3.org/2000/svg" version="1.1" viewBox="500 560 1620 700">
  <!-- Generator: Adobe Illustrator 30.1.0, SVG Export Plug-In . SVG Version: 2.1.1 Build 136)  -->
  <defs>
    <style>
      .st0 {
        fill: #8da2f9;
      }

      .st1 {
        fill: #53b7fe;
      }

      .st2 {
        fill: #4a54df;
      }

      .st3 {
        fill: #161f3b;
      }
    </style>
  </defs>
  <g>
    <g>
      <path class="st2" d="M909.01,1003.95c-4.44-.74-9,.86-11.97,4.29-1.93,2.23-2.98,5.11-3.05,8.06-.44,18.34-14.07,32.15-31.07,35.08-12.4,1.56-24.11-3.36-31.94-12.39-5.4-6.21-8.35-14.17-8.98-22.37-1.69-21.86,3.99-43.09,17.39-60.77l18.52-27.98c4.07-6.52,7.01-13.08,8.13-20.81.31-2.17.39-4.35.39-6.55l-.09-184.96-69.96-.7c-16.1-2.55-27.51-15.58-28.97-31.8l-.42-70.19-151.56-.25c-6.46-.02-12.9.68-19.11,2.43-23.74,6.7-41.9,25.39-47.69,49.56-1.25,5.25-1.72,10.65-1.72,16.06l.06,215.01c0,13.56,4.18,26.8,11.97,37.9l.19.26,17.42,26.51c10.36,15.76,15.79,34.35,14.9,53.18-.04.85-.09,1.71-.15,2.56-.56,7.7-3.03,15.21-7.77,21.31-7.76,9.97-19.91,15.41-33.07,13.72-17.21-1.85-31.02-16.5-31.7-34.6-.06-1.47-.23-2.96-.76-4.33-2.32-6.08-8.75-9.23-14.94-8.23-6.61,1.33-11.47,7.39-10.61,14.69,1.56,27.82,20.86,50.4,46.23,56.89,27.5,7.34,55.23-4.26,69.97-28.3,5.18-8.96,8.38-18.64,9.28-28.51.8-8.79-1.77-17.49-6.49-24.95-7.22-11.42-8.38-25.07-2.03-36.65,7.43-14.31,22.64-21.57,39.42-19.05,25.72,4.89,40.24,32.28,30.6,56.83-4.35,11.81-12.96,19.97-22.88,27.45-17.05,12.76-29.95,29.76-33.37,51.14l-.62,44.97c.45,20.07-8.9,37.9-24.76,49.63-7.18,5.42-7.79,15.36-1.77,21.01,5.98,5.08,15.38,4.44,20.18-2.51,18.46-15.55,30.8-36.03,32.78-60.4l.34-44.93c.82-10.42,5.05-19.96,13.35-25.92,2.09-1.1,4.15-1.24,5.48-.26,1.39.87,1.73,2.48,2.17,4.55l-.02,69.66-5.11,52.68c-.85,8.04,4.82,14.37,12.14,14.8,6.7.56,12.81-4.3,13.81-11.72l5.09-51.13.2-81.06c1.78-5.74,6.61-9.27,11.64-9,5.59.53,9.63,4.94,9.63,11.13l.03,71.21c.93,21.43,2.97,41.95,6.83,63.53,4.1,6.98,10.82,8.49,17.36,6.16,5.36-2.21,9.18-8.35,7.7-15.3-2.99-18.69-4.94-36.82-5.45-55.88l.08-68.38c2.86-2.68,5.88-2.03,8.78-.03,7.25,6.07,10.9,15.21,11.58,24.93l.05,37.3c.05,14.9,3.5,28.99,10.51,41.85,6.32,10.39,14.15,18.81,23.04,27.07,5.4,6.29,15.34,7.17,20.86.22,4.63-5.45,3.65-14.46-3.28-19.62-12.81-10.79-22.84-24.53-24.14-41.74l-.51-48.08c-1.84-20.66-12.46-37.77-27.98-51.25-7.59-6.94-16.07-12.28-21.85-20.72-14.51-20.61-10.92-48.11,10.02-62.04,16.29-11.15,37.67-7.99,49.81,6.87,9.6,12.14,10.44,29.24,1.87,42.64-5.86,9.15-8.7,20.01-6.95,30.74,1.94,11.87,7.28,23.2,15.46,32.36,13.3,15,33.03,22.44,54.12,20.62,29.87-4.18,52.12-28.07,54.38-58.17,1.32-7.85-3.92-13.77-11.01-15.33ZM639.76,755.42c.17-6.1,5.23-10.59,12.36-10.45l151.14-.02c6.33.09,10.9,4.12,11.71,9.27.9,5.73-1.29,10.99-8.14,13.6l-157.86.11c-6.66-1.36-9.99-6.53-9.2-12.51ZM610.58,744.57c6.86-.23,12.47,5.26,12.47,12.05s-5.39,12.06-12.06,12.06-12.34-5.69-12.05-12.58c.26-6.21,5.43-11.33,11.64-11.53ZM611.68,802.6h191.8c6.8.12,10.89,4.66,11.52,10.25.56,6.01-2.68,11.77-10.81,12.77l-194.03.12c-7.26-.63-11.4-5.76-11.5-11.66.17-6.78,5.22-11.91,13.02-11.49ZM806.79,883.79l-195.11.05c-7.03.48-11.66-3.98-12.85-9.74-.79-6.15,2.76-12.22,10.02-13.33l194.51-.02c6.47.19,10.7,4.49,11.74,9.58.74,5.6-1.44,11.07-8.3,13.46Z"/>
      <path class="st1" d="M623.06,756.62c0,6.66-5.39,12.06-12.06,12.06s-12.06-5.4-12.06-12.06,5.4-12.06,12.06-12.06,12.06,5.4,12.06,12.06Z"/>
      <path class="st2" d="M591.75,1116.29c-12.61,2.16-23.39,9.53-29.28,20.83-3.14,7.32-11.3,9.34-17.07,6.7-7.82-3.11-9.47-11.18-6.23-18.46,10.04-18.03,26.78-31.34,47.42-34.15,7.16-.26,12.82,3.83,14.36,9.7,1.86,6.66-2.17,13.11-9.21,15.39Z"/>
      <path class="st2" d="M874.49,1126.08c2.75,7.59.39,14.83-6.31,17.78-6,2.71-13.92.64-17.33-6.41-5.42-11.19-15.34-19.11-27.81-20.74-7.03-1.72-11.04-8.11-10.18-14.17,1.02-7.53,7.61-12.22,15.56-11.13,20.03,3.44,36.1,16.44,46.07,34.67Z"/>
      <circle class="st3" cx="770.52" cy="980.94" r="17.84"/>
      <circle class="st3" cx="644.41" cy="980.91" r="17.81"/>
    </g>
    <path class="st0" d="M866.32,715.54l-69.96-.7c-16.1-2.55-27.51-15.58-28.97-31.8l-.42-70.19,99.34,102.69Z"/>
  </g>
  <g>
    <g>
      <path class="st3" d="M1010.85,818.23c-7.68,0-13.94,1.97-18.78,5.9-4.85,3.93-7.27,9.37-7.27,16.32s1.78,12.39,5.35,16.32c3.57,3.93,8.27,6.95,14.12,9.05,5.85,2.1,12.25,3.98,19.2,5.62,6.95,1.65,13.89,3.66,20.84,6.03,6.95,2.38,13.34,5.3,19.2,8.78,5.85,3.47,10.56,8.55,14.12,15.22,3.57,6.68,5.35,14.77,5.35,24.27,0,15.73-6.26,29.25-18.78,40.59-12.52,11.34-29.16,17-49.91,17s-37.53-4.89-50.32-14.67c-12.8-9.78-19.2-23.54-19.2-41.27h41.13c1.46,16.82,11.06,25.23,28.79,25.23,8.78,0,15.72-2.28,20.84-6.86,5.12-4.57,7.68-10.65,7.68-18.24s-3.39-13.57-10.15-17.96c-6.77-4.39-14.95-7.68-24.54-9.87-9.6-2.19-19.24-4.84-28.93-7.95-9.69-3.11-17.92-8.54-24.68-16.32-6.77-7.77-10.15-18.05-10.15-30.85,0-17.37,6.31-31.26,18.92-41.68,12.61-10.42,28.84-15.63,48.68-15.63s35.79,4.52,47.85,13.57c12.07,9.05,18.65,22.81,19.74,41.27h-42.23c-.73-7.31-3.48-13.12-8.23-17.41-4.76-4.29-10.97-6.44-18.65-6.44Z"/>
      <path class="st3" d="M1129.73,961.52c-13.62-14.71-20.43-33.5-20.43-56.35s6.76-41.55,20.29-56.08c13.53-14.53,30.71-21.8,51.56-21.8s36.75,8.6,47.72,25.78v-23.58h38.39v224.32h-38.39v-97.9c-11.52,18.47-27.52,27.7-47.99,27.7s-37.53-7.36-51.14-22.08ZM1216.8,938.21c8.04-7.95,12.07-18.88,12.07-32.77s-4.02-24.82-12.07-32.77c-8.05-7.95-17.46-11.93-28.25-11.93s-20.16,3.93-28.11,11.79c-7.95,7.86-11.93,18.74-11.93,32.63s4.02,24.86,12.07,32.91c8.04,8.05,17.41,12.07,28.11,12.07s20.06-3.98,28.11-11.93Z"/>
      <path class="st3" d="M1413.15,829.47h38.67v151.92h-38.67v-23.04c-9.69,16.64-25.5,24.95-47.44,24.95-17.19,0-31.26-5.71-42.23-17.14-10.97-11.42-16.45-27.29-16.45-47.58v-89.12h38.39v83.64c0,11.89,3.02,21.03,9.05,27.42,6.03,6.4,14.26,9.6,24.68,9.6s18.69-3.2,24.82-9.6c6.12-6.4,9.19-15.54,9.19-27.42v-83.64Z"/>
      <rect class="st3" x="1492.94" y="829.47" width="38.67" height="151.92"/>
      <path class="st3" d="M1582.48,961.52c-13.62-14.71-20.43-33.5-20.43-56.35s6.76-41.55,20.29-56.08c13.53-14.53,30.71-21.8,51.56-21.8s36.75,8.6,47.72,25.78v-74.59h38.39v202.93h-38.39v-25.5c-11.52,18.47-27.52,27.7-47.99,27.7s-37.53-7.36-51.14-22.08ZM1669.54,938.21c8.04-7.95,12.07-18.88,12.07-32.77s-4.02-24.82-12.07-32.77c-8.05-7.95-17.46-11.93-28.25-11.93s-20.16,3.93-28.11,11.79c-7.95,7.86-11.93,18.74-11.93,32.63s4.02,24.86,12.07,32.91c8.04,8.05,17.41,12.07,28.11,12.07s20.06-3.98,28.11-11.93Z"/>
      <path class="st3" d="M1772.93,961.93c-14.81-14.44-22.21-33.36-22.21-56.77s7.49-42.23,22.49-56.49c14.99-14.26,33.59-21.39,55.81-21.39s40.81,7.13,55.81,21.39c14.99,14.26,22.49,33.09,22.49,56.49s-7.54,42.33-22.62,56.77c-15.08,14.44-33.78,21.66-56.08,21.66s-40.86-7.22-55.67-21.66ZM1828.6,950.96c10.78,0,20.06-3.98,27.83-11.93,7.77-7.95,11.65-19.2,11.65-33.73s-3.84-25.73-11.52-33.59c-7.68-7.86-16.96-11.79-27.83-11.79s-20.07,3.93-27.56,11.79c-7.5,7.86-11.24,19.11-11.24,33.73s3.75,25.87,11.24,33.73c7.49,7.86,16.63,11.79,27.42,11.79Z"/>
      <path class="st3" d="M1948.16,962.2c-13.9-14.26-20.84-33.18-20.84-56.77s6.95-42.51,20.84-56.77c13.89-14.26,31.9-21.39,54.02-21.39,18.46,0,33.91,4.48,46.34,13.44,12.43,8.96,20.75,21.66,24.95,38.12h-41.68c-4.94-12.61-14.81-18.92-29.62-18.92-11.15,0-19.88,4.07-26.19,12.2-6.31,8.14-9.46,19.24-9.46,33.32s3.15,25.19,9.46,33.32c6.31,8.14,15.04,12.2,26.19,12.2,14.62,0,24.5-6.4,29.62-19.2h41.68c-4.39,15.91-12.85,28.52-25.37,37.84-12.52,9.32-27.83,13.99-45.93,13.99-22.12,0-40.13-7.13-54.02-21.39Z"/>
    </g>
    <path class="st2" d="M1512.28,817.06h0c0-16.94-13.73-30.67-30.67-30.67h0c16.94,0,30.67-13.73,30.67-30.67h0c0,16.94,13.73,30.67,30.67,30.67h0c-16.94,0-30.67,13.73-30.67,30.67Z"/>
  </g>
</svg>
